simulation
nRows=75
nColumns=15
endheader
time  TH_x TH_y TH_z SC_y  SC_z  SC_x  AC_y  AC_z  AC_x  GH_y  GH_z  GH_yy  EL_x  PS_y
1.550000  0.000000  0.000000  0.000000  -33.876007  6.648218  25.797506  56.748998  5.404901  -6.171353  18.663098  56.363215  -17.748642  17.884196  0.000000
1.550998  0.000000  0.000000  0.000000  -33.888529  6.657980  25.803778  56.753088  5.413925  -6.152124  18.649480  56.385997  -17.744034  17.883523  0.000000
1.551996  0.000000  0.000000  0.000000  -33.901027  6.667713  25.809974  56.757164  5.422967  -6.132911  18.635909  56.408695  -17.739442  17.882857  0.000000
1.552994  0.000000  0.000000  0.000000  -33.913501  6.677417  25.816093  56.761225  5.432026  -6.113716  18.622383  56.431312  -17.734865  17.882198  0.000000
1.553992  0.000000  0.000000  0.000000  -33.925950  6.687093  25.822134  56.765275  5.441100  -6.094539  18.608899  56.453850  -17.730304  17.881546  0.000000
1.554990  0.000000  0.000000  0.000000  -33.938371  6.696741  25.828095  56.769310  5.450186  -6.075383  18.595459  56.476313  -17.725761  17.880900  0.000000
1.555988  0.000000  0.000000  0.000000  -33.950765  6.706361  25.833976  56.773331  5.459284  -6.056248  18.582063  56.498701  -17.721234  17.880262  0.000000
1.556986  0.000000  0.000000  0.000000  -33.963131  6.715953  25.839775  56.777333  5.468393  -6.037134  18.568713  56.521016  -17.716724  17.879631  0.000000
1.557985  0.000000  0.000000  0.000000  -33.975468  6.725518  25.845494  56.781316  5.477510  -6.018041  18.555410  56.543258  -17.712232  17.879007  0.000000
1.558983  0.000000  0.000000  0.000000  -33.987777  6.735055  25.851132  56.785279  5.486637  -5.998971  18.542156  56.565428  -17.707757  17.878392  0.000000
1.559981  0.000000  0.000000  0.000000  -34.000056  6.744564  25.856690  56.789222  5.495773  -5.979924  18.528952  56.587523  -17.703301  17.877784  0.000000
1.560979  0.000000  0.000000  0.000000  -34.012307  6.754046  25.862169  56.793144  5.504918  -5.960901  18.515797  56.609544  -17.698865  17.877184  0.000000
1.561977  0.000000  0.000000  0.000000  -34.024528  6.763500  25.867568  56.797046  5.514072  -5.941903  18.502693  56.631488  -17.694449  17.876592  0.000000
1.562975  0.000000  0.000000  0.000000  -34.036721  6.772925  25.872890  56.800929  5.523235  -5.922931  18.489641  56.653356  -17.690054  17.876008  0.000000
1.563973  0.000000  0.000000  0.000000  -34.048885  6.782323  25.878134  56.804792  5.532409  -5.903985  18.476640  56.675145  -17.685681  17.875431  0.000000
1.564971  0.000000  0.000000  0.000000  -34.061019  6.791691  25.883302  56.808635  5.541592  -5.885067  18.463693  56.696855  -17.681328  17.874862  0.000000
1.565969  0.000000  0.000000  0.000000  -34.073125  6.801031  25.888394  56.812457  5.550786  -5.866177  18.450799  56.718484  -17.676997  17.874301  0.000000
1.566967  0.000000  0.000000  0.000000  -34.085201  6.810342  25.893411  56.816260  5.559989  -5.847316  18.437960  56.740031  -17.672687  17.873748  0.000000
1.567965  0.000000  0.000000  0.000000  -34.097249  6.819623  25.898353  56.820043  5.569202  -5.828483  18.425175  56.761496  -17.668398  17.873203  0.000000
1.568963  0.000000  0.000000  0.000000  -34.109267  6.828875  25.903222  56.823806  5.578425  -5.809680  18.412444  56.782877  -17.664129  17.872666  0.000000
1.569961  0.000000  0.000000  0.000000  -34.121256  6.838096  25.908019  56.827550  5.587657  -5.790906  18.399767  56.804174  -17.659879  17.872137  0.000000
1.570959  0.000000  0.000000  0.000000  -34.133216  6.847287  25.912743  56.831275  5.596899  -5.772162  18.387143  56.825385  -17.655649  17.871617  0.000000
1.571958  0.000000  0.000000  0.000000  -34.145146  6.856447  25.917395  56.834982  5.606149  -5.753448  18.374572  56.846511  -17.651437  17.871105  0.000000
1.572956  0.000000  0.000000  0.000000  -34.157046  6.865576  25.921976  56.838671  5.615408  -5.734765  18.362054  56.867551  -17.647244  17.870602  0.000000
1.573954  0.000000  0.000000  0.000000  -34.168916  6.874674  25.926487  56.842342  5.624675  -5.716113  18.349588  56.888503  -17.643068  17.870108  0.000000
1.574952  0.000000  0.000000  0.000000  -34.180757  6.883740  25.930927  56.845996  5.633950  -5.697493  18.337175  56.909368  -17.638909  17.869622  0.000000
1.575950  0.000000  0.000000  0.000000  -34.192567  6.892773  25.935298  56.849633  5.643233  -5.678905  18.324814  56.930145  -17.634767  17.869145  0.000000
1.576948  0.000000  0.000000  0.000000  -34.204347  6.901774  25.939600  56.853253  5.652524  -5.660350  18.312505  56.950834  -17.630641  17.868677  0.000000
1.577946  0.000000  0.000000  0.000000  -34.216097  6.910742  25.943834  56.856857  5.661821  -5.641827  18.300247  56.971434  -17.626531  17.868218  0.000000
1.578944  0.000000  0.000000  0.000000  -34.227816  6.919677  25.947999  56.860445  5.671125  -5.623339  18.288042  56.991944  -17.622436  17.867767  0.000000
1.579942  0.000000  0.000000  0.000000  -34.239504  6.928578  25.952096  56.864017  5.680436  -5.604884  18.275887  57.012365  -17.618357  17.867326  0.000000
1.580940  0.000000  0.000000  0.000000  -34.251161  6.937445  25.956127  56.867574  5.689753  -5.586464  18.263784  57.032696  -17.614293  17.866895  0.000000
1.581938  0.000000  0.000000  0.000000  -34.262786  6.946277  25.960090  56.871115  5.699076  -5.568080  18.251732  57.052936  -17.610244  17.866472  0.000000
1.582936  0.000000  0.000000  0.000000  -34.274381  6.955075  25.963988  56.874641  5.708405  -5.549731  18.239732  57.073085  -17.606209  17.866058  0.000000
1.583934  0.000000  0.000000  0.000000  -34.285943  6.963837  25.967818  56.878153  5.717739  -5.531420  18.227782  57.093145  -17.602189  17.865654  0.000000
1.584932  0.000000  0.000000  0.000000  -34.297473  6.972565  25.971582  56.881649  5.727077  -5.513146  18.215883  57.113114  -17.598184  17.865260  0.000000
1.585930  0.000000  0.000000  0.000000  -34.308970  6.981257  25.975278  56.885131  5.736418  -5.494910  18.204035  57.132996  -17.594194  17.864875  0.000000
1.586929  0.000000  0.000000  0.000000  -34.320434  6.989915  25.978908  56.888597  5.745761  -5.476712  18.192238  57.152789  -17.590221  17.864499  0.000000
1.587927  0.000000  0.000000  0.000000  -34.331864  6.998538  25.982469  56.892046  5.755106  -5.458554  18.180493  57.172494  -17.586263  17.864133  0.000000
1.588925  0.000000  0.000000  0.000000  -34.343261  7.007126  25.985964  56.895479  5.764452  -5.440436  18.168801  57.192111  -17.582322  17.863777  0.000000
1.589923  0.000000  0.000000  0.000000  -34.354625  7.015679  25.989392  56.898895  5.773798  -5.422357  18.157161  57.211639  -17.578398  17.863431  0.000000
1.590921  0.000000  0.000000  0.000000  -34.365954  7.024197  25.992754  56.902294  5.783145  -5.404320  18.145575  57.231079  -17.574492  17.863094  0.000000
1.591919  0.000000  0.000000  0.000000  -34.377249  7.032680  25.996050  56.905676  5.792493  -5.386325  18.134042  57.250429  -17.570603  17.862768  0.000000
1.592917  0.000000  0.000000  0.000000  -34.388511  7.041128  25.999281  56.909041  5.801840  -5.368371  18.122563  57.269689  -17.566733  17.862451  0.000000
1.593915  0.000000  0.000000  0.000000  -34.399739  7.049541  26.002446  56.912390  5.811187  -5.350461  18.111140  57.288858  -17.562880  17.862143  0.000000
1.594913  0.000000  0.000000  0.000000  -34.410932  7.057918  26.005547  56.915721  5.820534  -5.332594  18.099771  57.307935  -17.559047  17.861846  0.000000
1.595911  0.000000  0.000000  0.000000  -34.422092  7.066259  26.008584  56.919035  5.829881  -5.314771  18.088458  57.326920  -17.555232  17.861559  0.000000
1.596909  0.000000  0.000000  0.000000  -34.433217  7.074565  26.011558  56.922332  5.839227  -5.296992  18.077200  57.345813  -17.551436  17.861281  0.000000
1.597907  0.000000  0.000000  0.000000  -34.444308  7.082835  26.014469  56.925613  5.848572  -5.279259  18.065999  57.364612  -17.547658  17.861013  0.000000
1.598905  0.000000  0.000000  0.000000  -34.455365  7.091069  26.017317  56.928876  5.857915  -5.261571  18.054854  57.383317  -17.543899  17.860755  0.000000
1.599903  0.000000  0.000000  0.000000  -34.466387  7.099266  26.020103  56.932123  5.867258  -5.243929  18.043765  57.401928  -17.540158  17.860508  0.000000
1.600901  0.000000  0.000000  0.000000  -34.477375  7.107427  26.022828  56.935352  5.876598  -5.226333  18.032731  57.420443  -17.536435  17.860270  0.000000
1.601900  0.000000  0.000000  0.000000  -34.488328  7.115551  26.025491  56.938566  5.885936  -5.208784  18.021754  57.438864  -17.532730  17.860043  0.000000
1.602898  0.000000  0.000000  0.000000  -34.499247  7.123639  26.028094  56.941763  5.895272  -5.191282  18.010833  57.457188  -17.529042  17.859825  0.000000
1.603896  0.000000  0.000000  0.000000  -34.510131  7.131689  26.030636  56.944944  5.904604  -5.173828  17.999968  57.475416  -17.525373  17.859619  0.000000
1.604894  0.000000  0.000000  0.000000  -34.520979  7.139702  26.033119  56.948109  5.913934  -5.156422  17.989159  57.493548  -17.521720  17.859422  0.000000
1.605892  0.000000  0.000000  0.000000  -34.531793  7.147677  26.035542  56.951258  5.923260  -5.139065  17.978406  57.511583  -17.518085  17.859236  0.000000
1.606890  0.000000  0.000000  0.000000  -34.542571  7.155615  26.037906  56.954392  5.932583  -5.121757  17.967709  57.529520  -17.514466  17.859061  0.000000
1.607888  0.000000  0.000000  0.000000  -34.553314  7.163515  26.040211  56.957509  5.941901  -5.104498  17.957068  57.547359  -17.510865  17.858896  0.000000
1.608886  0.000000  0.000000  0.000000  -34.564021  7.171377  26.042457  56.960611  5.951214  -5.087290  17.946483  57.565100  -17.507280  17.858742  0.000000
1.609884  0.000000  0.000000  0.000000  -34.574693  7.179200  26.044646  56.963697  5.960523  -5.070133  17.935953  57.582743  -17.503711  17.858598  0.000000
1.610882  0.000000  0.000000  0.000000  -34.585328  7.186985  26.046776  56.966769  5.969827  -5.053026  17.925480  57.600287  -17.500159  17.858466  0.000000
1.611880  0.000000  0.000000  0.000000  -34.595928  7.194731  26.048849  56.969824  5.979125  -5.035971  17.915062  57.617732  -17.496623  17.858344  0.000000
1.612878  0.000000  0.000000  0.000000  -34.606491  7.202438  26.050866  56.972865  5.988417  -5.018969  17.904701  57.635078  -17.493103  17.858233  0.000000
1.613876  0.000000  0.000000  0.000000  -34.617018  7.210105  26.052825  56.975890  5.997704  -5.002019  17.894395  57.652324  -17.489599  17.858134  0.000000
1.614874  0.000000  0.000000  0.000000  -34.627508  7.217734  26.054728  56.978900  6.006984  -4.985123  17.884147  57.669469  -17.486111  17.858046  0.000000
1.615873  0.000000  0.000000  0.000000  -34.637963  7.225322  26.056576  56.981893  6.016259  -4.968281  17.873959  57.686514  -17.482641  17.857968  0.000000
1.616871  0.000000  0.000000  0.000000  -34.648381  7.232871  26.058368  56.984867  6.025528  -4.951494  17.863833  57.703457  -17.479188  17.857902  0.000000
1.617869  0.000000  0.000000  0.000000  -34.658762  7.240380  26.060105  56.987825  6.034791  -4.934762  17.853767  57.720297  -17.475754  17.857846  0.000000
1.618867  0.000000  0.000000  0.000000  -34.669108  7.247850  26.061787  56.990765  6.044047  -4.918085  17.843762  57.737034  -17.472338  17.857800  0.000000
1.619865  0.000000  0.000000  0.000000  -34.679417  7.255280  26.063416  56.993691  6.053296  -4.901465  17.833816  57.753668  -17.468942  17.857766  0.000000
1.620863  0.000000  0.000000  0.000000  -34.689690  7.262670  26.064990  56.996602  6.062538  -4.884901  17.823929  57.770199  -17.465564  17.857742  0.000000
1.621861  0.000000  0.000000  0.000000  -34.699926  7.270020  26.066510  56.999497  6.071772  -4.868395  17.814101  57.786625  -17.462205  17.857728  0.000000
1.622859  0.000000  0.000000  0.000000  -34.710126  7.277331  26.067977  57.002378  6.080997  -4.851945  17.804332  57.802948  -17.458865  17.857725  0.000000
1.623857  0.000000  0.000000  0.000000  -34.720289  7.284601  26.069391  57.005244  6.090213  -4.835553  17.794623  57.819168  -17.455543  17.857732  0.000000
